HIERARCHY
ROOT hip
{
	OFFSET 0.000000 0.000000 0.000000 
	CHANNELS 6 Xposition Yposition Zposition Xrotation Zrotation Yrotation
	JOINT abdomen
	{
		OFFSET 0.000000 3.402643 0.000000 
		CHANNELS 3 Xrotation Zrotation Yrotation
		JOINT chest
		{
			OFFSET 0.000000 8.438565 -0.680529 
			CHANNELS 3 Xrotation Zrotation Yrotation
			JOINT neck
			{
				OFFSET 0.000000 10.207942 -0.272212 
				CHANNELS 3 Xrotation Zrotation Yrotation
				JOINT head
				{
					OFFSET 0.000000 3.130431 0.000000 
					CHANNELS 3 Xrotation Zrotation Yrotation
					End Site
					{
						OFFSET 0.000000 3.130435 0.000000 
					}
				}
			}
			JOINT lCollar
			{
				OFFSET 3.470700 6.669187 -0.816635 
				CHANNELS 3 Yrotation Zrotation Xrotation
				JOINT lShldr
				{
					OFFSET 3.198488 0.000000 0.000000 
					CHANNELS 3 Zrotation Yrotation Xrotation
					JOINT lForeArm
					{
						OFFSET 10.139888 0.000000 0.000000 
						CHANNELS 3 Yrotation Zrotation Xrotation
						JOINT lHand
						{
							OFFSET 8.370511 0.000000 0.000000 
							CHANNELS 3 Zrotation Yrotation Xrotation
							End Site
							{
								OFFSET 4.083176 0.000000 0.000000 
							}
						}
					}
				}
			}
			JOINT rCollar
			{
				OFFSET -3.470700 6.669187 -0.816635 
				CHANNELS 3 Yrotation Zrotation Xrotation
				JOINT rShldr
				{
					OFFSET -3.198488 0.000000 0.000000 
					CHANNELS 3 Zrotation Yrotation Xrotation
					JOINT rForeArm
					{
						OFFSET -10.139888 0.000000 0.000000 
						CHANNELS 3 Yrotation Zrotation Xrotation
						JOINT rHand
						{
							OFFSET -8.370511 0.000000 0.000000 
							CHANNELS 3 Zrotation Yrotation Xrotation
							End Site
							{
								OFFSET -4.083176 0.000000 0.000000 
							}
						}
					}
				}
			}
		}
	}
	JOINT lThigh
	{
		OFFSET 5.308129 -1.633274 1.361059 
		CHANNELS 3 Xrotation Zrotation Yrotation
		JOINT lShin
		{
			OFFSET -2.041588 -20.007561 0.000000 
			CHANNELS 3 Xrotation Zrotation Yrotation
			JOINT lFoot
			{
				OFFSET 0.000000 -19.190928 -1.224953 
				CHANNELS 3 Xrotation Yrotation Zrotation
				End Site
				{
					OFFSET 0.000000 -2.449906 4.627600 
				}
			}
		}
	}
	JOINT rThigh
	{
		OFFSET -5.308129 -1.633274 1.361059 
		CHANNELS 3 Xrotation Zrotation Yrotation
		JOINT rShin
		{
			OFFSET 2.041588 -20.007561 0.000000 
			CHANNELS 3 Xrotation Zrotation Yrotation
			JOINT rFoot
			{
				OFFSET 0.000000 -19.190928 -1.224953 
				CHANNELS 3 Xrotation Yrotation Zrotation
				End Site
				{
					OFFSET 0.000000 -2.449906 4.627600 
				}
			}
		}
	}
}
MOTION
Frames: 16
Frame Time: 0.016667
-0.559803 44.187759 -0.304055 0.941634 -5.370370 -5.576950 -12.072400 -8.979380 -1.791030 8.870800 9.300810 5.007280 18.273100 -1.068750 0.888390 12.930800 3.975950 1.045850 2.000000 -2.000000 0.000000 87.068298 168.472000 -6.091790 36.777699 -0.324354 0.081912 0.044633 0.000328 -136.804993 -2.000000 2.000000 0.000000 -89.115501 -162.904007 -5.795030 -39.277699 0.320679 0.086556 -0.057411 -0.021187 -125.799004 -7.648905 5.244500 -7.945945 27.695126 3.698851 1.835864 -23.330231 17.258730 5.993394 3.039972 3.530681 -1.036179 3.582593 -4.192161 -0.143798 -10.513922 -1.863932 -1.072461 
-0.559212 44.188915 -0.305372 0.951427 -5.360590 -5.567930 -12.103700 -8.987260 -1.780140 8.851070 9.302310 5.013890 18.303699 -1.015580 0.878796 12.941000 4.004760 1.041300 2.000000 -2.000000 0.000000 87.087799 168.423004 -6.062610 36.777699 -0.324354 0.081912 0.044633 0.000273 -136.824005 -2.000000 2.000000 0.000000 -89.095901 -162.865005 -5.814650 -39.277699 0.320679 0.086556 -0.057443 -0.021348 -125.739998 -7.638683 5.242188 -7.946285 27.666862 3.691576 1.844749 -23.310949 17.271858 5.986732 3.038333 3.507659 -1.048112 3.582079 -4.192600 -0.143842 -10.560287 -1.880117 -1.081416 
-0.555752 44.190598 -0.306718 0.951412 -5.350830 -5.567770 -12.105700 -8.995010 -1.768670 8.840440 9.293320 5.012680 18.304800 -1.016970 0.859346 12.931100 3.995240 1.029340 2.000000 -2.000000 0.000000 87.097504 168.403000 -6.062650 36.787498 -0.324340 0.081931 0.044633 0.000382 -136.785004 -2.000000 2.000000 0.000000 -89.086197 -162.845993 -5.824470 -39.287498 0.320664 0.086574 -0.057443 -0.021348 -125.739998 -7.646663 5.232087 -7.955907 27.676699 3.691691 1.844703 -23.266802 17.297432 5.993390 3.043014 3.503623 -1.048292 3.582144 -4.192544 -0.143836 -10.550401 -1.879803 -1.081060 
-0.555434 44.191757 -0.309640 0.951442 -5.370360 -5.568100 -12.093900 -8.987220 -1.779950 8.860180 9.291830 5.015830 18.304300 -1.016280 0.869071 12.940900 3.995110 1.030020 2.000000 -2.000000 0.000000 87.087799 168.432007 -6.101650 36.797298 -0.324326 0.081949 0.044634 0.000492 -136.746002 -2.000000 2.000000 0.000000 -89.095901 -162.865005 -5.785360 -39.287498 0.320664 0.086574 -0.057416 -0.021213 -125.789001 -7.663194 5.259857 -7.955047 27.688042 3.682749 1.852228 -23.284431 17.310434 5.994424 3.028271 3.517501 -1.058041 3.582733 -4.192040 -0.143785 -10.539927 -1.878501 -1.091051 
-0.556927 44.191502 -0.311991 0.951504 -5.409410 -5.558980 -12.083600 -8.968080 -1.783800 8.870800 9.300810 5.017050 18.304399 -1.044090 0.859868 12.940700 3.985470 1.028510 2.000000 -2.000000 0.000000 87.068298 168.451996 -6.111370 36.777699 -0.324354 0.081912 0.044634 0.000519 -136.735992 -2.000000 2.000000 0.000000 -89.125198 -162.904007 -5.765730 -39.258202 0.320709 0.086520 -0.057390 -0.021079 -125.837997 -7.689550 5.288877 -7.944962 27.697411 3.686671 1.853078 -23.269245 17.274292 5.989400 3.029599 3.555892 -1.064354 3.588047 -4.200346 -0.144215 -10.539724 -1.887007 -1.073564 
-0.556901 44.190083 -0.311617 0.951519 -5.419180 -5.549380 -12.081800 -8.969870 -1.793240 8.879910 9.290330 5.009220 18.274900 -1.089370 0.853090 12.930700 3.966300 1.034570 2.000000 -2.000000 0.000000 87.078102 168.481003 -6.150360 36.738701 -0.324410 0.081837 0.044634 0.000628 -136.697006 -2.000000 2.000000 0.000000 -89.125298 -162.914001 -5.746170 -39.228901 0.320753 0.086466 -0.057369 -0.020972 -125.876999 -7.701463 5.295249 -7.983753 27.736082 3.692626 1.854231 -23.338465 17.211798 5.973451 3.038059 3.563886 -1.082297 3.576355 -4.184638 -0.144163 -10.551263 -1.875694 -1.079041 
-0.556561 44.190983 -0.310442 0.941709 -5.419190 -5.538690 -12.080400 -8.981220 -1.800670 8.889020 9.279860 5.011150 18.254999 -1.116240 0.852859 12.920800 3.956780 1.032390 2.000000 -2.000000 0.000000 87.087898 168.490997 -6.208930 36.709400 -0.324451 0.081781 0.044634 0.000765 -136.647995 -2.000000 2.000000 0.000000 -89.115501 -162.914001 -5.726640 -39.228901 0.320753 0.086466 -0.057348 -0.020864 -125.916000 -7.692287 5.307111 -7.974251 27.737043 3.688039 1.862811 -23.347427 17.196053 5.976598 3.051270 3.576993 -1.070185 3.576451 -4.197398 -0.144327 -10.559557 -1.883588 -1.083120 
-0.559244 44.191238 -0.311131 0.931991 -5.477800 -5.548490 -12.070100 -8.962080 -1.806030 8.870040 9.291080 5.007640 18.283800 -1.134480 0.857607 12.930400 3.947000 1.031550 2.000000 -2.000000 0.000000 87.078102 168.472000 -6.248040 36.709400 -0.324451 0.081781 0.044635 0.000902 -136.600006 -2.000000 2.000000 0.000000 -89.125198 -162.923996 -5.687560 -39.209400 0.320782 0.086429 -0.057327 -0.020757 -125.955002 -7.700803 5.369317 -7.906097 27.785490 3.694582 1.864058 -23.305984 17.190046 5.954194 3.067613 3.639553 -1.062677 3.572572 -4.187867 -0.143775 -10.568547 -1.888152 -1.085568 
-0.562314 44.189564 -0.311532 0.932052 -5.516850 -5.578420 -12.072900 -8.939390 -1.789650 8.870040 9.291080 5.017410 18.314800 -1.146200 0.826505 12.940200 3.946880 1.022460 2.000000 -2.000000 0.000000 87.078102 168.442993 -6.228580 36.728901 -0.324424 0.081819 0.044635 0.000874 -136.608994 -2.000000 2.000000 0.000000 -89.125198 -162.923996 -5.697320 -39.199600 0.320797 0.086411 -0.057317 -0.020703 -125.974998 -7.686609 5.423901 -7.907479 27.824133 3.697548 1.854724 -23.361494 17.197607 5.970552 3.067703 3.686512 -1.029038 3.579592 -4.194721 -0.144055 -10.559635 -1.886993 -1.073962 
-0.562836 44.187759 -0.311560 0.922241 -5.516870 -5.587250 -12.065200 -8.947100 -1.777990 8.879150 9.280600 5.019350 18.295900 -1.146640 0.816022 12.940100 3.937230 1.011180 2.000000 -2.000000 0.000000 87.117104 168.412994 -6.150520 36.768002 -0.324368 0.081893 0.044634 0.000628 -136.697006 -2.000000 2.000000 0.000000 -89.105698 -162.923996 -5.707090 -39.209400 0.320782 0.086429 -0.057291 -0.020569 -126.023003 -7.648885 5.414656 -7.937753 27.775450 3.692900 1.854006 -23.351826 17.210329 5.976900 3.066039 3.675262 -1.030738 3.592122 -4.196372 -0.134075 -10.540218 -1.884663 -1.072413 
-0.562191 44.188015 -0.312047 0.912445 -5.526650 -5.576700 -12.073500 -8.958490 -1.785620 8.868530 9.271620 5.018130 18.275101 -1.126460 0.840839 12.930400 3.947000 1.031550 2.000000 -2.000000 0.000000 87.136597 168.373993 -6.140850 36.787498 -0.324340 0.081931 0.044634 0.000492 -136.746002 -2.000000 2.000000 0.000000 -89.095901 -162.923996 -5.677790 -39.228901 0.320753 0.086466 -0.057255 -0.020381 -126.092003 -7.651803 5.427380 -7.937571 27.786129 3.689330 1.862788 -23.344257 17.208118 5.962000 3.085778 3.685365 -1.037607 3.582052 -4.191634 -0.124266 -10.528965 -1.890827 -1.075238 
-0.558691 44.190983 -0.312419 0.922241 -5.516870 -5.567710 -12.071800 -8.960280 -1.795070 8.857910 9.262640 5.007160 18.273899 -1.115800 0.863351 12.920700 3.947130 1.040650 2.000000 -2.000000 0.000000 87.117203 168.384003 -6.453320 36.709400 -0.324451 0.081781 0.044646 0.002050 -136.188995 -2.000000 2.000000 0.000000 -89.105698 -162.893997 -5.629040 -39.258202 0.320709 0.086520 -0.057239 -0.020301 -126.121002 -7.648220 5.412408 -7.918164 27.765320 3.695189 1.854626 -23.337830 17.228720 5.984601 3.078316 3.678913 -1.038483 3.581002 -4.193518 -0.143934 -10.539845 -1.882660 -1.082261 
-0.554491 44.192398 -0.313364 0.941817 -5.487540 -5.569110 -12.070100 -8.962080 -1.806030 8.878390 9.270870 5.009940 18.274099 -1.143620 0.854163 12.930300 3.937350 1.039810 2.000000 -2.000000 0.000000 87.097702 168.414001 -6.736460 36.631199 -0.324563 0.081632 0.044674 -0.006129 -135.623001 -2.000000 2.000000 0.000000 -89.115402 -162.884003 -5.648590 -39.268002 0.320694 0.086538 -0.057265 -0.020435 -126.071999 -7.707244 5.380337 -7.926006 27.785259 3.693226 1.853957 -23.334091 17.217533 5.977712 3.047855 3.639779 -1.035266 3.582792 -4.191989 -0.143781 -10.520197 -1.888973 -1.063294 
-0.550808 44.191238 -0.314395 0.951596 -5.468000 -5.569720 -12.058600 -8.963830 -1.815290 8.898880 9.279110 5.002960 18.273899 -1.189300 0.848575 12.920400 3.927830 1.037630 2.000000 -2.000000 0.000000 87.078102 168.393997 -6.502130 36.709400 -0.324451 0.081781 0.044649 0.002296 -136.100998 -2.000000 2.000000 0.000000 -89.125198 -162.904007 -5.687600 -39.248402 0.320723 0.086502 -0.057306 -0.020650 -125.994003 -7.693645 5.347014 -7.915622 27.754107 3.703081 1.846794 -23.327621 17.197760 5.951371 3.037861 3.611304 -1.048637 3.584402 -4.190614 -0.144356 -10.530637 -1.882897 -1.071343 
-0.547113 44.190331 -0.314395 0.931945 -5.448500 -5.567540 -12.058900 -8.973380 -1.813270 8.899640 9.288840 5.002610 18.284000 -1.245060 0.830561 12.929800 3.898760 1.024000 2.000000 -2.000000 0.000000 87.078102 168.384003 -6.238480 36.758202 -0.324382 0.081875 0.044635 0.000902 -136.600006 -2.000000 2.000000 0.000000 -89.135002 -162.914001 -5.687580 -39.228901 0.320753 0.086466 -0.057312 -0.020677 -125.984001 -7.670444 5.321608 -7.975350 27.736763 3.687069 1.852844 -23.359709 17.228258 6.001840 3.049514 3.587619 -1.039883 3.582360 -4.192357 -0.143817 -10.533686 -1.864578 -1.073180 
-0.545984 44.190598 -0.314481 0.912281 -5.419240 -5.594510 -12.050900 -8.971540 -1.802100 8.891290 9.309050 5.010080 18.332899 -1.264190 0.826224 12.949300 3.888870 1.023820 2.000000 -2.000000 0.000000 87.078102 168.373993 -6.238500 36.728901 -0.324424 0.081819 0.044636 0.000984 -136.570007 -2.000000 2.000000 0.000000 -89.174103 -162.923996 -5.648490 -39.199600 0.320797 0.086411 -0.057296 -0.020596 -126.014000 -7.576795 5.285782 -7.977352 27.685575 3.693142 1.825464 -23.427265 17.284086 6.003186 3.062301 3.561590 -1.021494 3.587755 -4.200102 -0.134451 -10.538597 -1.892354 -1.076191 
